<svg xmlns="http://www.w3.org/2000/svg" xmlns:xlink="http://www.w3.org/1999/xlink" width="500" zoomAndPan="magnify" viewBox="0 0 375 374.999991" height="500" preserveAspectRatio="xMidYMid meet" version="1.0"><defs><g/></defs><g fill="#ffffff" fill-opacity="1"><g transform="translate(5.064738, 272.930621)"><g><path d="M 180.8125 -172.203125 L 180.8125 -137.765625 L 43.046875 -137.765625 L 43.046875 -103.3125 L 180.8125 -103.3125 L 180.8125 -68.875 L 43.046875 -68.875 L 43.046875 -34.4375 L 180.8125 -34.4375 L 180.8125 0 L 43.046875 0 C 36.734375 0 30.957031 -1.539062 25.71875 -4.625 C 20.476562 -7.707031 16.316406 -11.867188 13.234375 -17.109375 C 10.148438 -22.347656 8.609375 -28.125 8.609375 -34.4375 L 8.609375 -137.765625 C 8.609375 -144.078125 10.148438 -149.847656 13.234375 -155.078125 C 16.316406 -160.316406 20.476562 -164.476562 25.71875 -167.5625 C 30.957031 -170.65625 36.734375 -172.203125 43.046875 -172.203125 Z M 180.8125 -172.203125 "/></g></g></g><g fill="#ffffff" fill-opacity="1"><g transform="translate(180.496467, 272.930621)"><g><path d="M 180.8125 -172.203125 L 180.8125 -137.765625 L 43.046875 -137.765625 L 43.046875 -103.3125 L 180.8125 -103.3125 L 180.8125 -68.875 L 43.046875 -68.875 L 43.046875 0 L 8.609375 0 L 8.609375 -137.765625 C 8.609375 -144.078125 10.148438 -149.847656 13.234375 -155.078125 C 16.316406 -160.316406 20.476562 -164.476562 25.71875 -167.5625 C 30.957031 -170.65625 36.734375 -172.203125 43.046875 -172.203125 Z M 180.8125 -172.203125 "/></g></g></g></svg>