<svg xmlns="http://www.w3.org/2000/svg" xmlns:xlink="http://www.w3.org/1999/xlink" width="100" zoomAndPan="magnify" viewBox="0 0 75 30.000001" height="40" preserveAspectRatio="xMidYMid meet" version="1.0"><defs><clipPath id="3ba23c7a49"><path d="M 1.210938 0 L 31.375 0 L 31.375 24.316406 L 1.210938 24.316406 Z M 1.210938 0 " clip-rule="nonzero"/></clipPath><clipPath id="198b3783a4"><path d="M 15.960938 -6.511719 C 7.449219 -6.511719 0.546875 0.386719 0.546875 8.902344 C 0.546875 17.414062 7.449219 24.316406 15.960938 24.316406 C 24.472656 24.316406 31.375 17.414062 31.375 8.902344 C 31.375 0.386719 24.472656 -6.511719 15.960938 -6.511719 Z M 15.960938 -6.511719 " clip-rule="nonzero"/></clipPath><clipPath id="49f3692680"><path d="M 14.535156 0 L 45.363281 0 L 45.363281 24.316406 L 14.535156 24.316406 Z M 14.535156 0 " clip-rule="nonzero"/></clipPath><clipPath id="f5b360ad30"><path d="M 29.949219 -6.511719 C 21.433594 -6.511719 14.535156 0.386719 14.535156 8.902344 C 14.535156 17.414062 21.433594 24.316406 29.949219 24.316406 C 38.460938 24.316406 45.363281 17.414062 45.363281 8.902344 C 45.363281 0.386719 38.460938 -6.511719 29.949219 -6.511719 Z M 29.949219 -6.511719 " clip-rule="nonzero"/></clipPath><clipPath id="dc7aade2e4"><path d="M 31.375 0 L 62.203125 0 L 62.203125 24.316406 L 31.375 24.316406 Z M 31.375 0 " clip-rule="nonzero"/></clipPath><clipPath id="fc064e2272"><path d="M 46.789062 -6.511719 C 38.277344 -6.511719 31.375 0.386719 31.375 8.902344 C 31.375 17.414062 38.277344 24.316406 46.789062 24.316406 C 55.300781 24.316406 62.203125 17.414062 62.203125 8.902344 C 62.203125 0.386719 55.300781 -6.511719 46.789062 -6.511719 Z M 46.789062 -6.511719 " clip-rule="nonzero"/></clipPath><clipPath id="018cfc4704"><path d="M 45.363281 0 L 73.789062 0 L 73.789062 24.316406 L 45.363281 24.316406 Z M 45.363281 0 " clip-rule="nonzero"/></clipPath><clipPath id="cad20fa407"><path d="M 60.777344 -6.511719 C 52.261719 -6.511719 45.363281 0.386719 45.363281 8.902344 C 45.363281 17.414062 52.261719 24.316406 60.777344 24.316406 C 69.289062 24.316406 76.191406 17.414062 76.191406 8.902344 C 76.191406 0.386719 69.289062 -6.511719 60.777344 -6.511719 Z M 60.777344 -6.511719 " clip-rule="nonzero"/></clipPath><clipPath id="fb958abb27"><path d="M 60.777344 0 L 73.789062 0 L 73.789062 24.316406 L 60.777344 24.316406 Z M 60.777344 0 " clip-rule="nonzero"/></clipPath><clipPath id="d24447b08c"><path d="M 76.191406 -6.511719 C 67.675781 -6.511719 60.777344 0.386719 60.777344 8.902344 C 60.777344 17.414062 67.675781 24.316406 76.191406 24.316406 C 84.703125 24.316406 91.605469 17.414062 91.605469 8.902344 C 91.605469 0.386719 84.703125 -6.511719 76.191406 -6.511719 Z M 76.191406 -6.511719 " clip-rule="nonzero"/></clipPath><clipPath id="fceaa2f468"><path d="M 1.210938 0 L 15.960938 0 L 15.960938 24.316406 L 1.210938 24.316406 Z M 1.210938 0 " clip-rule="nonzero"/></clipPath><clipPath id="0c1533b337"><path d="M 0.546875 -6.511719 C -7.964844 -6.511719 -14.867188 0.386719 -14.867188 8.902344 C -14.867188 17.414062 -7.964844 24.316406 0.546875 24.316406 C 9.058594 24.316406 15.960938 17.414062 15.960938 8.902344 C 15.960938 0.386719 9.058594 -6.511719 0.546875 -6.511719 Z M 0.546875 -6.511719 " clip-rule="nonzero"/></clipPath></defs><g clip-path="url(#3ba23c7a49)"><g clip-path="url(#198b3783a4)"><path fill="#1f2225" d="M 0.546875 -6.511719 L 31.375 -6.511719 L 31.375 24.316406 L 0.546875 24.316406 Z M 0.546875 -6.511719 " fill-opacity="1" fill-rule="nonzero"/></g></g><g clip-path="url(#49f3692680)"><g clip-path="url(#f5b360ad30)"><path fill="#1f2225" d="M 14.535156 -6.511719 L 45.363281 -6.511719 L 45.363281 24.316406 L 14.535156 24.316406 Z M 14.535156 -6.511719 " fill-opacity="1" fill-rule="nonzero"/></g></g><g clip-path="url(#dc7aade2e4)"><g clip-path="url(#fc064e2272)"><path fill="#1f2225" d="M 31.375 -6.511719 L 62.203125 -6.511719 L 62.203125 24.316406 L 31.375 24.316406 Z M 31.375 -6.511719 " fill-opacity="1" fill-rule="nonzero"/></g></g><g clip-path="url(#018cfc4704)"><g clip-path="url(#cad20fa407)"><path fill="#1f2225" d="M 45.363281 -6.511719 L 76.191406 -6.511719 L 76.191406 24.316406 L 45.363281 24.316406 Z M 45.363281 -6.511719 " fill-opacity="1" fill-rule="nonzero"/></g></g><g clip-path="url(#fb958abb27)"><g clip-path="url(#d24447b08c)"><path fill="#1f2225" d="M 60.777344 -6.511719 L 91.605469 -6.511719 L 91.605469 24.316406 L 60.777344 24.316406 Z M 60.777344 -6.511719 " fill-opacity="1" fill-rule="nonzero"/></g></g><g clip-path="url(#fceaa2f468)"><g clip-path="url(#0c1533b337)"><path fill="#1f2225" d="M -14.867188 -6.511719 L 15.960938 -6.511719 L 15.960938 24.316406 L -14.867188 24.316406 Z M -14.867188 -6.511719 " fill-opacity="1" fill-rule="nonzero"/></g></g></svg>